<mxfile host="app.diagrams.net" modified="2024-10-30T12:53:13.338Z" agent="Mozilla/5.0 (Windows NT 10.0; Win64; x64) AppleWebKit/537.36 (KHTML, like Gecko) Chrome/130.0.0.0 Safari/537.36" etag="5f7RD7zlmSFCd2U-5HU0" version="24.2.8" type="device">
  <diagram name="Page-1" id="m1vy_PlRXMCs846feoYb">
    <mxGraphModel dx="2872" dy="1888" grid="1" gridSize="10" guides="1" tooltips="1" connect="1" arrows="1" fold="1" page="1" pageScale="1" pageWidth="480" pageHeight="480" math="0" shadow="0">
      <root>
        <mxCell id="0" />
        <mxCell id="1" parent="0" />
        <mxCell id="s6O_BMHLvrW5wArJdx9C-20" style="edgeStyle=orthogonalEdgeStyle;rounded=0;orthogonalLoop=1;jettySize=auto;html=1;" edge="1" parent="1" source="s6O_BMHLvrW5wArJdx9C-6" target="s6O_BMHLvrW5wArJdx9C-14">
          <mxGeometry relative="1" as="geometry" />
        </mxCell>
        <mxCell id="s6O_BMHLvrW5wArJdx9C-23" value="Visits https://GGames.co.uk&lt;div&gt;Using&lt;/div&gt;&lt;div&gt;[https]&lt;/div&gt;" style="edgeLabel;html=1;align=center;verticalAlign=middle;resizable=0;points=[];" vertex="1" connectable="0" parent="s6O_BMHLvrW5wArJdx9C-20">
          <mxGeometry x="0.5894" y="2" relative="1" as="geometry">
            <mxPoint x="18" y="-23" as="offset" />
          </mxGeometry>
        </mxCell>
        <object placeholders="1" c4Name="Employee" c4Type="User" c4Description="This is an employee user they intercat with the system to manage stock and complete customer orders" label="&lt;font style=&quot;font-size: 12px;&quot;&gt;&lt;b style=&quot;font-size: 12px;&quot;&gt;%c4Name%&lt;/b&gt;&lt;/font&gt;&lt;div style=&quot;font-size: 12px;&quot;&gt;[%c4Type%]&lt;/div&gt;&lt;br style=&quot;font-size: 12px;&quot;&gt;&lt;div style=&quot;font-size: 12px;&quot;&gt;&lt;font style=&quot;font-size: 12px;&quot;&gt;&lt;font color=&quot;#cccccc&quot; style=&quot;font-size: 12px;&quot;&gt;%c4Description%&lt;/font&gt;&lt;/font&gt;&lt;/div&gt;" id="s6O_BMHLvrW5wArJdx9C-6">
          <mxCell style="html=1;fontSize=12;dashed=0;whiteSpace=wrap;fillColor=#083F75;strokeColor=#06315C;fontColor=#ffffff;shape=mxgraph.c4.person2;align=center;metaEdit=1;points=[[0.5,0,0],[1,0.5,0],[1,0.75,0],[0.75,1,0],[0.5,1,0],[0.25,1,0],[0,0.75,0],[0,0.5,0]];resizable=0;" vertex="1" parent="1">
            <mxGeometry x="-770" y="-490" width="200" height="180" as="geometry" />
          </mxCell>
        </object>
        <object placeholders="1" c4Name="Admin User" c4Type="User" c4Description="This is the amdin user they can complete all the same ativities as the employee whilst also managing users and gneerating reports" label="&lt;font style=&quot;font-size: 16px&quot;&gt;&lt;b&gt;%c4Name%&lt;/b&gt;&lt;/font&gt;&lt;div&gt;[%c4Type%]&lt;/div&gt;&lt;br&gt;&lt;div&gt;&lt;font style=&quot;font-size: 11px&quot;&gt;&lt;font color=&quot;#cccccc&quot;&gt;%c4Description%&lt;/font&gt;&lt;/div&gt;" id="s6O_BMHLvrW5wArJdx9C-8">
          <mxCell style="html=1;fontSize=11;dashed=0;whiteSpace=wrap;fillColor=#083F75;strokeColor=#06315C;fontColor=#ffffff;shape=mxgraph.c4.person2;align=center;metaEdit=1;points=[[0.5,0,0],[1,0.5,0],[1,0.75,0],[0.75,1,0],[0.5,1,0],[0.25,1,0],[0,0.75,0],[0,0.5,0]];resizable=0;" vertex="1" parent="1">
            <mxGeometry x="-350" y="-490" width="200" height="180" as="geometry" />
          </mxCell>
        </object>
        <object placeholders="1" c4Name="Customer" c4Type="Person" c4Description="This customer doesn&#39;t interact with the system however they are neede to intercat with the external payment system to compleet their payment" label="&lt;font style=&quot;font-size: 16px&quot;&gt;&lt;b&gt;%c4Name%&lt;/b&gt;&lt;/font&gt;&lt;div&gt;[%c4Type%]&lt;/div&gt;&lt;br&gt;&lt;div&gt;&lt;font style=&quot;font-size: 11px&quot;&gt;&lt;font color=&quot;#cccccc&quot;&gt;%c4Description%&lt;/font&gt;&lt;/div&gt;" id="s6O_BMHLvrW5wArJdx9C-9">
          <mxCell style="html=1;fontSize=11;dashed=0;whiteSpace=wrap;fillColor=#6C6477;strokeColor=#4D4D4D;fontColor=#ffffff;shape=mxgraph.c4.person2;align=center;metaEdit=1;points=[[0.5,0,0],[1,0.5,0],[1,0.75,0],[0.75,1,0],[0.5,1,0],[0.25,1,0],[0,0.75,0],[0,0.5,0]];resizable=0;" vertex="1" parent="1">
            <mxGeometry x="140" y="-490" width="200" height="180" as="geometry" />
          </mxCell>
        </object>
        <object placeholders="1" c4Name="GGames" c4Type="SystemScopeBoundary" c4Application="Inventory Managment System" label="&lt;font style=&quot;font-size: 16px&quot;&gt;&lt;b&gt;&lt;div style=&quot;text-align: left&quot;&gt;%c4Name%&lt;/div&gt;&lt;/b&gt;&lt;/font&gt;&lt;div style=&quot;text-align: left&quot;&gt;[%c4Application%]&lt;/div&gt;" id="s6O_BMHLvrW5wArJdx9C-10">
          <mxCell style="rounded=1;fontSize=11;whiteSpace=wrap;html=1;dashed=1;arcSize=20;fillColor=none;strokeColor=#666666;fontColor=#333333;labelBackgroundColor=none;align=left;verticalAlign=bottom;labelBorderColor=none;spacingTop=0;spacing=10;dashPattern=8 4;metaEdit=1;rotatable=0;perimeter=rectanglePerimeter;noLabel=0;labelPadding=0;allowArrows=0;connectable=0;expand=0;recursiveResize=0;editable=1;pointerEvents=0;absoluteArcSize=1;points=[[0.25,0,0],[0.5,0,0],[0.75,0,0],[1,0.25,0],[1,0.5,0],[1,0.75,0],[0.75,1,0],[0.5,1,0],[0.25,1,0],[0,0.75,0],[0,0.5,0],[0,0.25,0]];" vertex="1" parent="1">
            <mxGeometry x="-830" y="-280" width="930" height="790" as="geometry" />
          </mxCell>
        </object>
        <mxCell id="s6O_BMHLvrW5wArJdx9C-46" style="edgeStyle=orthogonalEdgeStyle;rounded=0;orthogonalLoop=1;jettySize=auto;html=1;" edge="1" parent="1" source="s6O_BMHLvrW5wArJdx9C-14" target="s6O_BMHLvrW5wArJdx9C-16">
          <mxGeometry relative="1" as="geometry" />
        </mxCell>
        <mxCell id="s6O_BMHLvrW5wArJdx9C-52" value="Delicers to users&lt;div&gt;browser&lt;/div&gt;&lt;div&gt;&lt;br&gt;&lt;/div&gt;" style="edgeLabel;html=1;align=center;verticalAlign=middle;resizable=0;points=[];" vertex="1" connectable="0" parent="s6O_BMHLvrW5wArJdx9C-46">
          <mxGeometry x="0.1238" relative="1" as="geometry">
            <mxPoint x="-10" y="23" as="offset" />
          </mxGeometry>
        </mxCell>
        <object placeholders="1" c4Name="Web application" c4Type="Container" c4Technology="PHP, HTML, JavaScript " c4Description="Delicers static content and the web application with appropriate view" label="&lt;font style=&quot;font-size: 16px&quot;&gt;&lt;b&gt;%c4Name%&lt;/b&gt;&lt;/font&gt;&lt;div&gt;[%c4Type%: %c4Technology%]&lt;/div&gt;&lt;br&gt;&lt;div&gt;&lt;font style=&quot;font-size: 11px&quot;&gt;&lt;font color=&quot;#E6E6E6&quot;&gt;%c4Description%&lt;/font&gt;&lt;/div&gt;" id="s6O_BMHLvrW5wArJdx9C-14">
          <mxCell style="rounded=1;whiteSpace=wrap;html=1;fontSize=11;labelBackgroundColor=none;fillColor=#23A2D9;fontColor=#ffffff;align=center;arcSize=10;strokeColor=#0E7DAD;metaEdit=1;resizable=0;points=[[0.25,0,0],[0.5,0,0],[0.75,0,0],[1,0.25,0],[1,0.5,0],[1,0.75,0],[0.75,1,0],[0.5,1,0],[0.25,1,0],[0,0.75,0],[0,0.5,0],[0,0.25,0]];" vertex="1" parent="1">
            <mxGeometry x="-820" y="-210" width="240" height="120" as="geometry" />
          </mxCell>
        </object>
        <mxCell id="s6O_BMHLvrW5wArJdx9C-28" style="edgeStyle=orthogonalEdgeStyle;rounded=0;orthogonalLoop=1;jettySize=auto;html=1;" edge="1" parent="1" source="s6O_BMHLvrW5wArJdx9C-16" target="s6O_BMHLvrW5wArJdx9C-18">
          <mxGeometry relative="1" as="geometry" />
        </mxCell>
        <mxCell id="s6O_BMHLvrW5wArJdx9C-51" value="Makes API call&lt;div&gt;[HTTPS]&lt;/div&gt;" style="edgeLabel;html=1;align=center;verticalAlign=middle;resizable=0;points=[];" vertex="1" connectable="0" parent="s6O_BMHLvrW5wArJdx9C-28">
          <mxGeometry x="-0.1385" y="-1" relative="1" as="geometry">
            <mxPoint as="offset" />
          </mxGeometry>
        </mxCell>
        <object placeholders="1" c4Name="multi-page application" c4Type="Container" c4Technology="HTML, PHP, JavaSript, CSS" c4Description="Provides the user with all the functionalitey provide to them via a web-browser depending on their role." label="&lt;font style=&quot;font-size: 16px&quot;&gt;&lt;b&gt;%c4Name%&lt;/b&gt;&lt;/font&gt;&lt;div&gt;[%c4Type%:&amp;nbsp;%c4Technology%]&lt;/div&gt;&lt;br&gt;&lt;div&gt;&lt;font style=&quot;font-size: 11px&quot;&gt;&lt;font color=&quot;#E6E6E6&quot;&gt;%c4Description%&lt;/font&gt;&lt;/div&gt;" id="s6O_BMHLvrW5wArJdx9C-16">
          <mxCell style="shape=mxgraph.c4.webBrowserContainer2;whiteSpace=wrap;html=1;boundedLbl=1;rounded=0;labelBackgroundColor=none;strokeColor=#118ACD;fillColor=#23A2D9;strokeColor=#118ACD;strokeColor2=#0E7DAD;fontSize=12;fontColor=#ffffff;align=center;metaEdit=1;points=[[0.5,0,0],[1,0.25,0],[1,0.5,0],[1,0.75,0],[0.5,1,0],[0,0.75,0],[0,0.5,0],[0,0.25,0]];resizable=0;" vertex="1" parent="1">
            <mxGeometry x="-500" y="-100" width="240" height="160" as="geometry" />
          </mxCell>
        </object>
        <mxCell id="s6O_BMHLvrW5wArJdx9C-36" style="edgeStyle=orthogonalEdgeStyle;rounded=0;orthogonalLoop=1;jettySize=auto;html=1;" edge="1" parent="1" source="s6O_BMHLvrW5wArJdx9C-18" target="s6O_BMHLvrW5wArJdx9C-33">
          <mxGeometry relative="1" as="geometry" />
        </mxCell>
        <mxCell id="s6O_BMHLvrW5wArJdx9C-37" value="Provides the user with details to enter&lt;div&gt;&amp;nbsp;into the payment processing system&lt;/div&gt;" style="edgeLabel;html=1;align=center;verticalAlign=middle;resizable=0;points=[];" vertex="1" connectable="0" parent="s6O_BMHLvrW5wArJdx9C-36">
          <mxGeometry x="-0.1563" y="8" relative="1" as="geometry">
            <mxPoint as="offset" />
          </mxGeometry>
        </mxCell>
        <object placeholders="1" c4Name="API" c4Type="Container" c4Technology="PHP" c4Description="Provides functionallity for the Inventory Managmnet System" label="&lt;font style=&quot;font-size: 16px&quot;&gt;&lt;b&gt;%c4Name%&lt;/b&gt;&lt;/font&gt;&lt;div&gt;[%c4Type%: %c4Technology%]&lt;/div&gt;&lt;br&gt;&lt;div&gt;&lt;font style=&quot;font-size: 11px&quot;&gt;&lt;font color=&quot;#E6E6E6&quot;&gt;%c4Description%&lt;/font&gt;&lt;/div&gt;" id="s6O_BMHLvrW5wArJdx9C-18">
          <mxCell style="rounded=1;whiteSpace=wrap;html=1;fontSize=11;labelBackgroundColor=none;fillColor=#23A2D9;fontColor=#ffffff;align=center;arcSize=10;strokeColor=#0E7DAD;metaEdit=1;resizable=0;points=[[0.25,0,0],[0.5,0,0],[0.75,0,0],[1,0.25,0],[1,0.5,0],[1,0.75,0],[0.75,1,0],[0.5,1,0],[0.25,1,0],[0,0.75,0],[0,0.5,0],[0,0.25,0]];" vertex="1" parent="1">
            <mxGeometry x="-500" y="190" width="240" height="120" as="geometry" />
          </mxCell>
        </object>
        <object placeholders="1" c4Name="Database" c4Type="Container" c4Technology="DB Browser, SQL lite" c4Description="Description of storage type container role/responsibility." label="&lt;font style=&quot;font-size: 16px&quot;&gt;&lt;b&gt;%c4Name%&lt;/b&gt;&lt;/font&gt;&lt;div&gt;[%c4Type%:&amp;nbsp;%c4Technology%]&lt;/div&gt;&lt;br&gt;&lt;div&gt;&lt;font style=&quot;font-size: 11px&quot;&gt;&lt;font color=&quot;#E6E6E6&quot;&gt;%c4Description%&lt;/font&gt;&lt;/div&gt;" id="s6O_BMHLvrW5wArJdx9C-19">
          <mxCell style="shape=cylinder3;size=15;whiteSpace=wrap;html=1;boundedLbl=1;rounded=0;labelBackgroundColor=none;fillColor=#23A2D9;fontSize=12;fontColor=#ffffff;align=center;strokeColor=#0E7DAD;metaEdit=1;points=[[0.5,0,0],[1,0.25,0],[1,0.5,0],[1,0.75,0],[0.5,1,0],[0,0.75,0],[0,0.5,0],[0,0.25,0]];resizable=0;" vertex="1" parent="1">
            <mxGeometry x="-500" y="390" width="240" height="120" as="geometry" />
          </mxCell>
        </object>
        <mxCell id="s6O_BMHLvrW5wArJdx9C-31" style="edgeStyle=orthogonalEdgeStyle;rounded=0;orthogonalLoop=1;jettySize=auto;html=1;" edge="1" parent="1" source="s6O_BMHLvrW5wArJdx9C-18" target="s6O_BMHLvrW5wArJdx9C-19">
          <mxGeometry relative="1" as="geometry" />
        </mxCell>
        <mxCell id="s6O_BMHLvrW5wArJdx9C-32" value="Reads/Writes to&amp;nbsp;&lt;div&gt;Database&lt;/div&gt;&lt;div&gt;[SQL]&lt;/div&gt;" style="edgeLabel;html=1;align=center;verticalAlign=middle;resizable=0;points=[];" vertex="1" connectable="0" parent="s6O_BMHLvrW5wArJdx9C-31">
          <mxGeometry x="-0.0667" y="1" relative="1" as="geometry">
            <mxPoint x="-1" y="-1" as="offset" />
          </mxGeometry>
        </mxCell>
        <object placeholders="1" c4Name="Payment Processing system" c4Type="Software System" c4Description="Connected to a card reader. The checkout page procide steh suer with the price of the order. When the order is paid for the employee marks if in the system the order is complete" label="&lt;font style=&quot;font-size: 16px&quot;&gt;&lt;b&gt;%c4Name%&lt;/b&gt;&lt;/font&gt;&lt;div&gt;[%c4Type%]&lt;/div&gt;&lt;br&gt;&lt;div&gt;&lt;font style=&quot;font-size: 11px&quot;&gt;&lt;font color=&quot;#cccccc&quot;&gt;%c4Description%&lt;/font&gt;&lt;/div&gt;" id="s6O_BMHLvrW5wArJdx9C-33">
          <mxCell style="rounded=1;whiteSpace=wrap;html=1;labelBackgroundColor=none;fillColor=#8C8496;fontColor=#ffffff;align=center;arcSize=10;strokeColor=#736782;metaEdit=1;resizable=0;points=[[0.25,0,0],[0.5,0,0],[0.75,0,0],[1,0.25,0],[1,0.5,0],[1,0.75,0],[0.75,1,0],[0.5,1,0],[0.25,1,0],[0,0.75,0],[0,0.5,0],[0,0.25,0]];" vertex="1" parent="1">
            <mxGeometry x="120" y="140" width="240" height="120" as="geometry" />
          </mxCell>
        </object>
        <mxCell id="s6O_BMHLvrW5wArJdx9C-38" style="edgeStyle=orthogonalEdgeStyle;rounded=0;orthogonalLoop=1;jettySize=auto;html=1;entryX=0.5;entryY=0;entryDx=0;entryDy=0;entryPerimeter=0;" edge="1" parent="1" source="s6O_BMHLvrW5wArJdx9C-9" target="s6O_BMHLvrW5wArJdx9C-33">
          <mxGeometry relative="1" as="geometry" />
        </mxCell>
        <mxCell id="s6O_BMHLvrW5wArJdx9C-39" value="Inputs details into the&amp;nbsp;&lt;div&gt;payment processing system&lt;/div&gt;" style="edgeLabel;html=1;align=center;verticalAlign=middle;resizable=0;points=[];" vertex="1" connectable="0" parent="s6O_BMHLvrW5wArJdx9C-38">
          <mxGeometry x="-0.1319" y="-1" relative="1" as="geometry">
            <mxPoint y="1" as="offset" />
          </mxGeometry>
        </mxCell>
        <mxCell id="s6O_BMHLvrW5wArJdx9C-44" style="edgeStyle=orthogonalEdgeStyle;rounded=0;orthogonalLoop=1;jettySize=auto;html=1;entryX=1;entryY=0.5;entryDx=0;entryDy=0;entryPerimeter=0;" edge="1" parent="1" source="s6O_BMHLvrW5wArJdx9C-8" target="s6O_BMHLvrW5wArJdx9C-14">
          <mxGeometry relative="1" as="geometry" />
        </mxCell>
        <mxCell id="s6O_BMHLvrW5wArJdx9C-45" value="Visits https://GGames.co.uk&lt;div&gt;Using&lt;/div&gt;&lt;div&gt;[https]&lt;/div&gt;" style="edgeLabel;html=1;align=center;verticalAlign=middle;resizable=0;points=[];" vertex="1" connectable="0" parent="1">
          <mxGeometry x="-470" y="-250.33333333333326" as="geometry" />
        </mxCell>
        <mxCell id="s6O_BMHLvrW5wArJdx9C-47" style="edgeStyle=orthogonalEdgeStyle;rounded=0;orthogonalLoop=1;jettySize=auto;html=1;entryX=0.5;entryY=0;entryDx=0;entryDy=0;entryPerimeter=0;" edge="1" parent="1" source="s6O_BMHLvrW5wArJdx9C-6" target="s6O_BMHLvrW5wArJdx9C-16">
          <mxGeometry relative="1" as="geometry" />
        </mxCell>
        <mxCell id="s6O_BMHLvrW5wArJdx9C-49" style="edgeStyle=orthogonalEdgeStyle;rounded=0;orthogonalLoop=1;jettySize=auto;html=1;entryX=0.5;entryY=0;entryDx=0;entryDy=0;entryPerimeter=0;" edge="1" parent="1" source="s6O_BMHLvrW5wArJdx9C-8" target="s6O_BMHLvrW5wArJdx9C-16">
          <mxGeometry relative="1" as="geometry" />
        </mxCell>
        <mxCell id="s6O_BMHLvrW5wArJdx9C-50" value="Employe can manage stock,&amp;nbsp;&lt;div&gt;Complete orders and genrate invoices.&lt;/div&gt;&lt;div&gt;The admin can do all this + generate reports and&amp;nbsp;&lt;/div&gt;&lt;div&gt;manage users&lt;/div&gt;" style="edgeLabel;html=1;align=center;verticalAlign=middle;resizable=0;points=[];" vertex="1" connectable="0" parent="s6O_BMHLvrW5wArJdx9C-49">
          <mxGeometry x="0.4667" y="9" relative="1" as="geometry">
            <mxPoint x="41" y="41" as="offset" />
          </mxGeometry>
        </mxCell>
      </root>
    </mxGraphModel>
  </diagram>
</mxfile>
